<mxfile host="app.diagrams.net" modified="2021-10-09T05:22:57.016Z" agent="5.0 (Windows NT 10.0; Win64; x64) AppleWebKit/537.36 (KHTML, like Gecko) Chrome/94.0.4606.71 Safari/537.36" etag="LajGMbFJGQSfEyX34IYY" version="15.5.0" type="github" pages="3">
  <diagram id="82Kb28_ipfk1viRLgqHd" name="Exercise2">
    <mxGraphModel dx="1422" dy="762" grid="1" gridSize="10" guides="1" tooltips="1" connect="1" arrows="1" fold="1" page="1" pageScale="1" pageWidth="827" pageHeight="1169" math="0" shadow="0">
      <root>
        <mxCell id="0" />
        <mxCell id="1" parent="0" />
        <mxCell id="rlyPqB-drvD-3TCzPFHu-4" value="UNO Game" style="rounded=0;whiteSpace=wrap;html=1;strokeWidth=2;" parent="1" vertex="1">
          <mxGeometry x="260" y="280" width="123" height="60" as="geometry" />
        </mxCell>
        <mxCell id="rlyPqB-drvD-3TCzPFHu-7" value="Cards" style="rounded=0;whiteSpace=wrap;html=1;strokeWidth=2;" parent="1" vertex="1">
          <mxGeometry x="430" y="360" width="120" height="60" as="geometry" />
        </mxCell>
        <mxCell id="rlyPqB-drvD-3TCzPFHu-8" value="Skip" style="rounded=0;whiteSpace=wrap;html=1;strokeWidth=2;" parent="1" vertex="1">
          <mxGeometry x="290" y="509" width="120" height="60" as="geometry" />
        </mxCell>
        <mxCell id="rlyPqB-drvD-3TCzPFHu-9" value="Wild" style="rounded=0;whiteSpace=wrap;html=1;strokeWidth=2;" parent="1" vertex="1">
          <mxGeometry x="430" y="509" width="120" height="60" as="geometry" />
        </mxCell>
        <mxCell id="rlyPqB-drvD-3TCzPFHu-10" value="Reverse" style="rounded=0;whiteSpace=wrap;html=1;strokeWidth=2;" parent="1" vertex="1">
          <mxGeometry x="570" y="509" width="120" height="60" as="geometry" />
        </mxCell>
        <mxCell id="rlyPqB-drvD-3TCzPFHu-11" value="+2" style="rounded=0;whiteSpace=wrap;html=1;strokeWidth=2;" parent="1" vertex="1">
          <mxGeometry x="190" y="650" width="120" height="60" as="geometry" />
        </mxCell>
        <mxCell id="rlyPqB-drvD-3TCzPFHu-12" value="+4" style="rounded=0;whiteSpace=wrap;html=1;strokeWidth=2;" parent="1" vertex="1">
          <mxGeometry x="430" y="650" width="120" height="60" as="geometry" />
        </mxCell>
        <mxCell id="rlyPqB-drvD-3TCzPFHu-13" value="Player" style="rounded=0;whiteSpace=wrap;html=1;strokeWidth=2;" parent="1" vertex="1">
          <mxGeometry x="110" y="360" width="120" height="60" as="geometry" />
        </mxCell>
        <mxCell id="rlyPqB-drvD-3TCzPFHu-16" value="Plays" style="exitX=0;exitY=0.5;exitDx=0;exitDy=0;entryX=0.5;entryY=0;entryDx=0;entryDy=0;endArrow=none;endFill=0;strokeWidth=2;rounded=1;edgeStyle=orthogonalEdgeStyle;jumpStyle=none;fontSize=11;labelBackgroundColor=none;html=1;targetPerimeterSpacing=0;endSize=6;" parent="1" source="rlyPqB-drvD-3TCzPFHu-4" target="rlyPqB-drvD-3TCzPFHu-13" edge="1">
          <mxGeometry x="0.1429" y="-10" width="100" relative="1" as="geometry">
            <mxPoint x="270" y="390" as="sourcePoint" />
            <mxPoint x="370" y="390" as="targetPoint" />
            <mxPoint as="offset" />
          </mxGeometry>
        </mxCell>
        <mxCell id="rlyPqB-drvD-3TCzPFHu-18" value="2...4" style="text;html=1;strokeColor=none;fillColor=none;align=center;verticalAlign=middle;whiteSpace=wrap;rounded=0;fontSize=11;" parent="1" vertex="1">
          <mxGeometry x="110" y="330" width="60" height="30" as="geometry" />
        </mxCell>
        <mxCell id="rlyPqB-drvD-3TCzPFHu-19" value="1" style="text;html=1;strokeColor=none;fillColor=none;align=center;verticalAlign=middle;whiteSpace=wrap;rounded=0;fontSize=11;" parent="1" vertex="1">
          <mxGeometry x="210" y="280" width="60" height="30" as="geometry" />
        </mxCell>
        <mxCell id="rlyPqB-drvD-3TCzPFHu-20" value="OwnsCards" style="html=1;rounded=1;labelBackgroundColor=none;fontSize=11;endArrow=none;endFill=0;targetPerimeterSpacing=0;strokeWidth=2;edgeStyle=orthogonalEdgeStyle;jumpStyle=none;exitX=1;exitY=0.5;exitDx=0;exitDy=0;entryX=0;entryY=0.5;entryDx=0;entryDy=0;" parent="1" source="rlyPqB-drvD-3TCzPFHu-13" target="rlyPqB-drvD-3TCzPFHu-7" edge="1">
          <mxGeometry y="10" width="100" relative="1" as="geometry">
            <mxPoint x="240" y="390" as="sourcePoint" />
            <mxPoint x="420" y="390" as="targetPoint" />
            <mxPoint as="offset" />
          </mxGeometry>
        </mxCell>
        <mxCell id="rlyPqB-drvD-3TCzPFHu-21" value="1" style="text;html=1;strokeColor=none;fillColor=none;align=center;verticalAlign=middle;whiteSpace=wrap;rounded=0;labelBackgroundColor=none;fontSize=11;" parent="1" vertex="1">
          <mxGeometry x="220" y="360" width="60" height="30" as="geometry" />
        </mxCell>
        <mxCell id="rlyPqB-drvD-3TCzPFHu-22" value="*" style="text;html=1;strokeColor=none;fillColor=none;align=center;verticalAlign=middle;whiteSpace=wrap;rounded=0;labelBackgroundColor=none;fontSize=11;" parent="1" vertex="1">
          <mxGeometry x="383" y="360" width="60" height="30" as="geometry" />
        </mxCell>
        <mxCell id="rlyPqB-drvD-3TCzPFHu-23" value="HasCards" style="html=1;rounded=1;labelBackgroundColor=none;fontSize=11;endArrow=none;endFill=0;targetPerimeterSpacing=0;strokeWidth=2;edgeStyle=orthogonalEdgeStyle;jumpStyle=none;entryX=0.5;entryY=0;entryDx=0;entryDy=0;exitX=1;exitY=0.5;exitDx=0;exitDy=0;" parent="1" source="rlyPqB-drvD-3TCzPFHu-4" target="rlyPqB-drvD-3TCzPFHu-7" edge="1">
          <mxGeometry x="0.1083" y="10" width="100" relative="1" as="geometry">
            <mxPoint x="320" y="390" as="sourcePoint" />
            <mxPoint x="420" y="390" as="targetPoint" />
            <mxPoint as="offset" />
          </mxGeometry>
        </mxCell>
        <mxCell id="rlyPqB-drvD-3TCzPFHu-24" value="1" style="text;html=1;strokeColor=none;fillColor=none;align=center;verticalAlign=middle;whiteSpace=wrap;rounded=0;fontSize=11;" parent="1" vertex="1">
          <mxGeometry x="370" y="280" width="60" height="30" as="geometry" />
        </mxCell>
        <mxCell id="rlyPqB-drvD-3TCzPFHu-25" value="*" style="text;html=1;strokeColor=none;fillColor=none;align=center;verticalAlign=middle;whiteSpace=wrap;rounded=0;labelBackgroundColor=none;fontSize=11;" parent="1" vertex="1">
          <mxGeometry x="470" y="330" width="60" height="30" as="geometry" />
        </mxCell>
        <mxCell id="rlyPqB-drvD-3TCzPFHu-26" value="" style="html=1;rounded=1;labelBackgroundColor=none;fontSize=11;endArrow=none;endFill=0;targetPerimeterSpacing=0;strokeWidth=2;edgeStyle=orthogonalEdgeStyle;jumpStyle=none;exitX=0.5;exitY=1;exitDx=0;exitDy=0;entryX=0.5;entryY=0;entryDx=0;entryDy=0;startArrow=block;startFill=0;" parent="1" source="rlyPqB-drvD-3TCzPFHu-7" target="rlyPqB-drvD-3TCzPFHu-9" edge="1">
          <mxGeometry width="100" relative="1" as="geometry">
            <mxPoint x="440" y="390" as="sourcePoint" />
            <mxPoint x="540" y="390" as="targetPoint" />
          </mxGeometry>
        </mxCell>
        <mxCell id="rlyPqB-drvD-3TCzPFHu-28" value="" style="html=1;rounded=1;labelBackgroundColor=none;fontSize=11;startArrow=none;startFill=0;endArrow=none;endFill=0;targetPerimeterSpacing=0;strokeWidth=2;edgeStyle=orthogonalEdgeStyle;jumpStyle=none;entryX=0.5;entryY=0;entryDx=0;entryDy=0;" parent="1" target="rlyPqB-drvD-3TCzPFHu-10" edge="1">
          <mxGeometry width="100" relative="1" as="geometry">
            <mxPoint x="490" y="460" as="sourcePoint" />
            <mxPoint x="620" y="430" as="targetPoint" />
            <Array as="points">
              <mxPoint x="490" y="470" />
              <mxPoint x="630" y="470" />
            </Array>
          </mxGeometry>
        </mxCell>
        <mxCell id="rlyPqB-drvD-3TCzPFHu-29" value="" style="html=1;rounded=1;labelBackgroundColor=none;fontSize=11;startArrow=none;startFill=0;endArrow=none;endFill=0;targetPerimeterSpacing=0;strokeWidth=2;edgeStyle=orthogonalEdgeStyle;jumpStyle=none;entryX=0.5;entryY=0;entryDx=0;entryDy=0;" parent="1" target="rlyPqB-drvD-3TCzPFHu-8" edge="1">
          <mxGeometry width="100" relative="1" as="geometry">
            <mxPoint x="490" y="460" as="sourcePoint" />
            <mxPoint x="640" y="508" as="targetPoint" />
            <Array as="points">
              <mxPoint x="490" y="470" />
              <mxPoint x="350" y="470" />
            </Array>
          </mxGeometry>
        </mxCell>
        <mxCell id="rlyPqB-drvD-3TCzPFHu-30" value="" style="html=1;rounded=1;labelBackgroundColor=none;fontSize=11;startArrow=block;startFill=0;endArrow=none;endFill=0;targetPerimeterSpacing=0;strokeWidth=2;edgeStyle=orthogonalEdgeStyle;jumpStyle=none;entryX=0.5;entryY=0;entryDx=0;entryDy=0;" parent="1" target="rlyPqB-drvD-3TCzPFHu-12" edge="1">
          <mxGeometry width="100" relative="1" as="geometry">
            <mxPoint x="490" y="570" as="sourcePoint" />
            <mxPoint x="610" y="430" as="targetPoint" />
          </mxGeometry>
        </mxCell>
        <mxCell id="rlyPqB-drvD-3TCzPFHu-31" value="disjoint" style="html=1;rounded=1;labelBackgroundColor=none;fontSize=11;startArrow=block;startFill=0;endArrow=none;endFill=0;targetPerimeterSpacing=0;strokeWidth=2;edgeStyle=orthogonalEdgeStyle;jumpStyle=none;entryX=0.442;entryY=-0.017;entryDx=0;entryDy=0;exitX=0.5;exitY=1;exitDx=0;exitDy=0;entryPerimeter=0;" parent="1" source="rlyPqB-drvD-3TCzPFHu-8" target="rlyPqB-drvD-3TCzPFHu-11" edge="1">
          <mxGeometry x="0.5082" y="-10" width="100" relative="1" as="geometry">
            <mxPoint x="500" y="580" as="sourcePoint" />
            <mxPoint x="500" y="660" as="targetPoint" />
            <Array as="points">
              <mxPoint x="350" y="630" />
              <mxPoint x="243" y="630" />
            </Array>
            <mxPoint as="offset" />
          </mxGeometry>
        </mxCell>
        <mxCell id="rlyPqB-drvD-3TCzPFHu-32" value="" style="html=1;rounded=1;labelBackgroundColor=none;fontSize=11;startArrow=none;startFill=0;endArrow=none;endFill=0;targetPerimeterSpacing=0;strokeWidth=2;edgeStyle=orthogonalEdgeStyle;jumpStyle=none;exitX=0;exitY=0.5;exitDx=0;exitDy=0;" parent="1" source="rlyPqB-drvD-3TCzPFHu-12" edge="1">
          <mxGeometry width="100" relative="1" as="geometry">
            <mxPoint x="510" y="430" as="sourcePoint" />
            <mxPoint x="350" y="600" as="targetPoint" />
          </mxGeometry>
        </mxCell>
      </root>
    </mxGraphModel>
  </diagram>
  <diagram id="Zw8NAB4SY6jPT5ctn1OA" name="Exercise 1">
    <mxGraphModel dx="1422" dy="762" grid="1" gridSize="10" guides="1" tooltips="1" connect="1" arrows="1" fold="1" page="1" pageScale="1" pageWidth="827" pageHeight="1169" math="0" shadow="0">
      <root>
        <mxCell id="Jdc7mkvj2uUXyvSBTwti-0" />
        <mxCell id="Jdc7mkvj2uUXyvSBTwti-1" parent="Jdc7mkvj2uUXyvSBTwti-0" />
        <mxCell id="Jdc7mkvj2uUXyvSBTwti-4" value="" style="edgeStyle=orthogonalEdgeStyle;rounded=0;orthogonalLoop=1;jettySize=auto;html=1;" edge="1" parent="Jdc7mkvj2uUXyvSBTwti-1" source="Jdc7mkvj2uUXyvSBTwti-2" target="Jdc7mkvj2uUXyvSBTwti-3">
          <mxGeometry relative="1" as="geometry" />
        </mxCell>
        <mxCell id="Jdc7mkvj2uUXyvSBTwti-2" value="Movie" style="rounded=0;whiteSpace=wrap;html=1;" vertex="1" parent="Jdc7mkvj2uUXyvSBTwti-1">
          <mxGeometry x="200" y="260" width="120" height="60" as="geometry" />
        </mxCell>
        <mxCell id="Jdc7mkvj2uUXyvSBTwti-3" value="Movie" style="rounded=0;whiteSpace=wrap;html=1;" vertex="1" parent="Jdc7mkvj2uUXyvSBTwti-1">
          <mxGeometry x="400" y="260" width="120" height="60" as="geometry" />
        </mxCell>
      </root>
    </mxGraphModel>
  </diagram>
  <diagram id="sKj2qN6ZVkqm6QuXQdr0" name="Exercise 3">
    <mxGraphModel dx="981" dy="526" grid="1" gridSize="10" guides="1" tooltips="1" connect="1" arrows="1" fold="1" page="1" pageScale="1" pageWidth="827" pageHeight="1169" math="0" shadow="0">
      <root>
        <mxCell id="kNFcriUywnnVmtG-1KrT-0" />
        <mxCell id="kNFcriUywnnVmtG-1KrT-1" parent="kNFcriUywnnVmtG-1KrT-0" />
        <mxCell id="kNFcriUywnnVmtG-1KrT-2" value="Student" style="shape=umlActor;verticalLabelPosition=bottom;verticalAlign=top;html=1;" vertex="1" parent="kNFcriUywnnVmtG-1KrT-1">
          <mxGeometry x="100" y="330" width="30" height="60" as="geometry" />
        </mxCell>
        <mxCell id="kNFcriUywnnVmtG-1KrT-5" value="" style="rounded=0;whiteSpace=wrap;html=1;align=left;verticalAlign=bottom;" vertex="1" parent="kNFcriUywnnVmtG-1KrT-1">
          <mxGeometry x="190" y="190" width="450" height="320" as="geometry" />
        </mxCell>
        <mxCell id="kNFcriUywnnVmtG-1KrT-6" value="Context" style="text;html=1;strokeColor=none;fillColor=none;align=center;verticalAlign=middle;whiteSpace=wrap;rounded=0;fontColor=#CC0000;fontStyle=1" vertex="1" parent="kNFcriUywnnVmtG-1KrT-1">
          <mxGeometry x="240" y="470" width="60" height="30" as="geometry" />
        </mxCell>
        <mxCell id="kNFcriUywnnVmtG-1KrT-7" value="Register For Courses" style="ellipse;whiteSpace=wrap;html=1;align=center;verticalAlign=middle;" vertex="1" parent="kNFcriUywnnVmtG-1KrT-1">
          <mxGeometry x="230" y="390" width="140" height="70" as="geometry" />
        </mxCell>
        <mxCell id="kNFcriUywnnVmtG-1KrT-8" value="" style="endArrow=open;endFill=1;endSize=12;html=1;rounded=0;entryX=0;entryY=0.5;entryDx=0;entryDy=0;" edge="1" parent="kNFcriUywnnVmtG-1KrT-1" source="kNFcriUywnnVmtG-1KrT-2" target="kNFcriUywnnVmtG-1KrT-7">
          <mxGeometry width="160" relative="1" as="geometry">
            <mxPoint x="240" y="460" as="sourcePoint" />
            <mxPoint x="400" y="460" as="targetPoint" />
          </mxGeometry>
        </mxCell>
        <mxCell id="kNFcriUywnnVmtG-1KrT-9" value="Billing System" style="shape=umlActor;verticalLabelPosition=bottom;verticalAlign=top;html=1;" vertex="1" parent="kNFcriUywnnVmtG-1KrT-1">
          <mxGeometry x="110" y="430" width="30" height="60" as="geometry" />
        </mxCell>
        <mxCell id="kNFcriUywnnVmtG-1KrT-10" value="" style="endArrow=open;endFill=1;endSize=12;html=1;rounded=0;entryX=0;entryY=0.5;entryDx=0;entryDy=0;" edge="1" parent="kNFcriUywnnVmtG-1KrT-1" source="kNFcriUywnnVmtG-1KrT-9" target="kNFcriUywnnVmtG-1KrT-7">
          <mxGeometry width="160" relative="1" as="geometry">
            <mxPoint x="150" y="330" as="sourcePoint" />
            <mxPoint x="310" y="330" as="targetPoint" />
          </mxGeometry>
        </mxCell>
        <mxCell id="kNFcriUywnnVmtG-1KrT-11" value="Instrutor" style="shape=umlActor;verticalLabelPosition=bottom;verticalAlign=top;html=1;" vertex="1" parent="kNFcriUywnnVmtG-1KrT-1">
          <mxGeometry x="690" y="350" width="30" height="60" as="geometry" />
        </mxCell>
        <mxCell id="kNFcriUywnnVmtG-1KrT-16" value="Registrar" style="shape=umlActor;verticalLabelPosition=bottom;verticalAlign=top;html=1;" vertex="1" parent="kNFcriUywnnVmtG-1KrT-1">
          <mxGeometry x="490" y="110" width="30" height="60" as="geometry" />
        </mxCell>
        <mxCell id="kNFcriUywnnVmtG-1KrT-17" value="Maintain Course Information" style="ellipse;whiteSpace=wrap;html=1;align=center;verticalAlign=middle;" vertex="1" parent="kNFcriUywnnVmtG-1KrT-1">
          <mxGeometry x="335" y="230" width="140" height="70" as="geometry" />
        </mxCell>
        <mxCell id="kNFcriUywnnVmtG-1KrT-18" value="Select Courses To Teach" style="ellipse;whiteSpace=wrap;html=1;align=center;verticalAlign=middle;" vertex="1" parent="kNFcriUywnnVmtG-1KrT-1">
          <mxGeometry x="450" y="315" width="140" height="70" as="geometry" />
        </mxCell>
        <mxCell id="kNFcriUywnnVmtG-1KrT-19" value="Request Enrollment List" style="ellipse;whiteSpace=wrap;html=1;align=center;verticalAlign=middle;" vertex="1" parent="kNFcriUywnnVmtG-1KrT-1">
          <mxGeometry x="450" y="410" width="140" height="70" as="geometry" />
        </mxCell>
        <mxCell id="kNFcriUywnnVmtG-1KrT-20" value="" style="endArrow=open;endFill=1;endSize=12;html=1;rounded=0;fontColor=#CC0000;entryX=1;entryY=0.5;entryDx=0;entryDy=0;" edge="1" parent="kNFcriUywnnVmtG-1KrT-1" source="kNFcriUywnnVmtG-1KrT-11" target="kNFcriUywnnVmtG-1KrT-18">
          <mxGeometry width="160" relative="1" as="geometry">
            <mxPoint x="380" y="330" as="sourcePoint" />
            <mxPoint x="540" y="330" as="targetPoint" />
          </mxGeometry>
        </mxCell>
        <mxCell id="kNFcriUywnnVmtG-1KrT-21" value="" style="endArrow=open;endFill=1;endSize=12;html=1;rounded=0;fontColor=#CC0000;entryX=1;entryY=0.5;entryDx=0;entryDy=0;" edge="1" parent="kNFcriUywnnVmtG-1KrT-1" source="kNFcriUywnnVmtG-1KrT-11" target="kNFcriUywnnVmtG-1KrT-19">
          <mxGeometry width="160" relative="1" as="geometry">
            <mxPoint x="690" y="390" as="sourcePoint" />
            <mxPoint x="599.9999999999995" y="360.0000000000001" as="targetPoint" />
          </mxGeometry>
        </mxCell>
        <mxCell id="kNFcriUywnnVmtG-1KrT-22" value="" style="endArrow=open;endFill=1;endSize=12;html=1;rounded=0;fontColor=#CC0000;entryX=0.5;entryY=0;entryDx=0;entryDy=0;" edge="1" parent="kNFcriUywnnVmtG-1KrT-1" source="kNFcriUywnnVmtG-1KrT-16" target="kNFcriUywnnVmtG-1KrT-17">
          <mxGeometry width="160" relative="1" as="geometry">
            <mxPoint x="405" y="150" as="sourcePoint" />
            <mxPoint x="540" y="330" as="targetPoint" />
          </mxGeometry>
        </mxCell>
      </root>
    </mxGraphModel>
  </diagram>
</mxfile>
